<svg width="167" height="37" viewBox="0 0 167 37" fill="none" xmlns="http://www.w3.org/2000/svg">
<path d="M9.60359 29.24C9.60359 30.8133 8.07026 31.6 5.00359 31.6C4.33693 31.6 3.93693 31.2667 3.80359 30.6C3.69693 29.9067 3.64359 28.9733 3.64359 27.8C3.64359 25.5067 4.24359 22.1067 5.44359 17.6C6.64359 13.0933 7.85693 9.48 9.08359 6.76C6.23026 6.81333 4.09693 7.37333 2.68359 8.44C2.25693 8.76 1.91026 9.05333 1.64359 9.32C1.37693 9.56 1.13693 9.68 0.923594 9.68C0.736927 9.68 0.55026 9.53333 0.363594 9.24C0.176927 8.92 0.0835938 8.54666 0.0835938 8.12C0.0835938 6.65333 0.736927 5.52 2.04359 4.72C3.91026 3.6 6.56359 2.85333 10.0036 2.48C11.5236 2.32 12.9103 2.24 14.1636 2.24H14.2436C14.4303 2.24 14.6836 2.34667 15.0036 2.56C15.3503 2.77333 15.5236 3.12 15.5236 3.6C15.5236 4.08 15.4303 4.62666 15.2436 5.24C15.0836 5.82666 14.8569 6.26667 14.5636 6.56C14.4036 7.84 14.0569 9.37333 13.5236 11.16C12.9903 12.9467 12.4303 14.8533 11.8436 16.88C10.3503 22.1067 9.60359 26.2267 9.60359 29.24ZM29.3636 21.56C29.8169 21.56 30.0436 22.1733 30.0436 23.4C30.0436 24.0667 29.7636 24.88 29.2036 25.84C28.6436 26.7733 27.9103 27.64 27.0036 28.44C26.1236 29.2133 25.1369 29.8533 24.0436 30.36C22.9503 30.8667 21.9103 31.12 20.9236 31.12C19.9369 31.12 19.1636 30.9333 18.6036 30.56C18.0436 30.1867 17.6036 29.68 17.2836 29.04C16.8303 28.1333 16.4569 26.4133 16.1636 23.88C15.8703 21.32 15.5769 19.5333 15.2836 18.52C14.5903 18.3867 13.9769 18.12 13.4436 17.72C12.9369 17.2933 12.6836 16.7867 12.6836 16.2C12.6836 15.5867 12.9503 15.1467 13.4836 14.88C14.0436 14.6133 14.6703 14.48 15.3636 14.48C16.0569 14.48 16.6703 14.64 17.2036 14.96C18.6436 13.4133 19.9503 11.3867 21.1236 8.88C21.6569 7.73333 22.1636 6.56 22.6436 5.36C23.1503 4.13333 23.6703 2.88 24.2036 1.6C24.3369 1.28 24.6169 1.09333 25.0436 1.04C25.4969 0.959999 26.0836 0.919999 26.8036 0.919999C27.5236 0.919999 28.0303 1.16 28.3236 1.64C28.6169 2.09333 28.7636 2.85333 28.7636 3.92C28.7636 4.96 28.4836 6.16 27.9236 7.52C27.3636 8.88 26.6436 10.2 25.7636 11.48C23.9236 14.1733 21.8036 16.2 19.4036 17.56C19.8303 18.44 20.1769 19.4133 20.4436 20.48C20.7103 21.52 20.9636 22.4933 21.2036 23.4C21.4436 24.28 21.7103 25.0267 22.0036 25.64C22.3236 26.2267 22.7103 26.52 23.1636 26.52C23.6169 26.52 24.1503 26.2667 24.7636 25.76C25.4036 25.2267 26.0303 24.6533 26.6436 24.04C27.2569 23.4267 27.8036 22.8667 28.2836 22.36C28.7903 21.8267 29.1503 21.56 29.3636 21.56ZM59.9645 21.56C60.4179 21.56 60.6445 22.1733 60.6445 23.4C60.6445 24.0667 60.3645 24.88 59.8045 25.84C59.2445 26.7733 58.5112 27.64 57.6045 28.44C56.7245 29.2133 55.7379 29.8533 54.6445 30.36C53.5512 30.8667 52.4845 31.12 51.4445 31.12C49.8712 31.12 48.7779 30.7333 48.1645 29.96C47.5779 29.16 47.2845 28 47.2845 26.48C47.2845 24.9333 47.8845 22.2933 49.0845 18.56C45.4045 18.4 42.7245 18.32 41.0445 18.32H40.4845C40.0045 21.28 39.7645 24.3867 39.7645 27.64C39.7645 29.08 39.2179 30.0667 38.1245 30.6C37.6179 30.84 37.1245 31.0667 36.6445 31.28C36.1912 31.4933 35.6979 31.6 35.1645 31.6C33.8312 31.6 33.1645 30.4 33.1645 28C33.1645 25.6 33.7112 22.52 34.8045 18.76C33.6312 18.8933 32.5912 19.0267 31.6845 19.16C30.8045 19.2933 30.1112 19.36 29.6045 19.36C29.0979 19.36 28.8445 19.2267 28.8445 18.96C28.8445 18.16 29.4979 17.3467 30.8045 16.52C32.1379 15.6933 33.9379 15.0667 36.2045 14.64C38.7112 8.26667 41.7779 4.01333 45.4045 1.88C46.7379 1.08 48.1512 0.679999 49.6445 0.679999C52.3112 0.706666 54.2312 1.42667 55.4045 2.84C56.6045 4.25333 57.2045 6.13333 57.2045 8.48C57.2312 10.8 56.5245 13.8267 55.0845 17.56C54.5512 19 54.0579 20.3067 53.6045 21.48C53.1512 22.6533 52.9245 23.6 52.9245 24.32C52.9245 25.04 52.9779 25.5867 53.0845 25.96C53.1912 26.3333 53.4445 26.52 53.8445 26.52C54.5645 26.52 56.2579 25.1333 58.9245 22.36C59.4045 21.8267 59.7512 21.56 59.9645 21.56ZM51.4445 9.64C51.4445 7.32 50.5779 6.16 48.8445 6.16C47.0845 6.16 45.5645 6.90667 44.2845 8.4C43.0312 9.86667 42.0579 11.84 41.3645 14.32L50.4445 14.44C51.1112 12.3067 51.4445 10.7067 51.4445 9.64ZM75.057 34.12V36.44H57.457V34.12H75.057ZM103.634 21.56C104.088 21.56 104.314 22.1733 104.314 23.4C104.314 24.0667 104.034 24.88 103.474 25.84C102.914 26.7733 102.181 27.64 101.274 28.44C100.394 29.2133 99.4076 29.8533 98.3142 30.36C97.2209 30.8667 96.1809 31.12 95.1942 31.12C94.2076 31.12 93.4342 30.9333 92.8742 30.56C92.3142 30.1867 91.8742 29.68 91.5542 29.04C91.1009 28.1333 90.7276 26.4133 90.4342 23.88C90.1409 21.32 89.8476 19.5333 89.5542 18.52C88.8609 18.3867 88.2476 18.12 87.7142 17.72C87.2076 17.2933 86.9542 16.7867 86.9542 16.2C86.9542 15.5867 87.2209 15.1467 87.7542 14.88C88.3142 14.6133 88.9409 14.48 89.6342 14.48C90.3542 14.48 90.9942 14.6533 91.5542 15C92.3009 14.3867 92.9009 13.6667 93.3542 12.84C93.8342 11.9867 94.0742 10.8533 94.0742 9.44C94.0742 8 93.5942 6.85333 92.6342 6C91.6742 5.14667 90.2609 4.72 88.3942 4.72C86.5542 4.72 85.1409 4.86667 84.1542 5.16C83.1676 5.45333 82.3142 5.77333 81.5942 6.12C80.9009 6.46667 80.2742 6.78667 79.7142 7.08C79.1809 7.37333 78.6742 7.52 78.1942 7.52C77.7142 7.52 77.4742 7.37333 77.4742 7.08C77.4742 6.76 77.7276 6.25333 78.2342 5.56C78.7409 4.86666 79.4876 4.17333 80.4742 3.48C82.9542 1.74667 85.7542 0.893332 88.8742 0.919999C91.9942 0.919999 94.5676 1.50667 96.5942 2.68C98.9676 4.06667 100.154 6.14667 100.154 8.92C100.181 11.2133 99.5809 13.12 98.3542 14.64C97.1276 16.16 95.6076 17.2533 93.7942 17.92C94.1942 18.8 94.5142 19.7467 94.7542 20.76C95.0209 21.7733 95.2742 22.7067 95.5142 23.56C95.7542 24.4133 96.0209 25.12 96.3142 25.68C96.6342 26.24 97.0076 26.52 97.4342 26.52C97.8876 26.52 98.4209 26.2667 99.0342 25.76C99.6742 25.2267 100.301 24.6533 100.914 24.04C101.528 23.4267 102.074 22.8667 102.554 22.36C103.061 21.8267 103.421 21.56 103.634 21.56ZM86.2342 7.16C86.5809 7.16 86.7542 7.61333 86.7542 8.52C86.7542 9.42667 86.7009 10.28 86.5942 11.08C86.3542 12.6267 86.0476 14.0667 85.6742 15.4C84.7142 19.0267 84.2342 21.1467 84.2342 21.76V27.64C84.2342 29.08 83.6876 30.0667 82.5942 30.6C82.0876 30.84 81.5942 31.0667 81.1142 31.28C80.6609 31.4933 80.1409 31.6 79.5542 31.6C78.4342 31.6 77.8742 30.32 77.8742 27.76C77.8742 25.1733 78.4742 21.92 79.6742 18C80.8742 14.08 82.1276 11.0933 83.4342 9.04C83.7009 8.64 84.0876 8.22667 84.5942 7.8C85.1009 7.37333 85.6476 7.16 86.2342 7.16ZM110.47 30.08C110.47 30.8267 109.937 31.2 108.87 31.2C107.19 31.2 106.043 30.88 105.43 30.24C104.817 29.5733 104.51 28.4667 104.51 26.92C104.537 24.52 105.19 20.68 106.47 15.4C107.777 10.12 109.003 6.2 110.15 3.64C110.443 2.97333 110.857 2.34667 111.39 1.76C111.923 1.14667 112.63 0.84 113.51 0.84C113.883 0.84 114.19 1.06667 114.43 1.52C114.697 1.97333 114.83 2.49333 114.83 3.08C114.83 3.66666 114.723 4.54666 114.51 5.72C114.297 6.86667 114.03 8.18666 113.71 9.68C113.39 11.1733 113.03 12.7867 112.63 14.52C111.19 21.1067 110.47 26.2933 110.47 30.08ZM127.875 29.24C127.875 30.8133 126.342 31.6 123.275 31.6C122.608 31.6 122.208 31.2667 122.075 30.6C121.968 29.9067 121.915 29.0533 121.915 28.04C121.915 27.0267 121.982 25.9467 122.115 24.8C122.275 23.6267 122.475 22.36 122.715 21C123.168 18.3867 123.808 15.5733 124.635 12.56C125.488 9.52 126.328 7.17333 127.155 5.52C125.475 5.62667 123.808 5.93333 122.155 6.44C120.502 6.92 119.328 7.26667 118.635 7.48C117.942 7.66667 117.368 7.76 116.915 7.76C116.462 7.76 116.235 7.61333 116.235 7.32C116.235 6.97333 116.502 6.46667 117.035 5.8C117.568 5.10667 118.328 4.41333 119.315 3.72C121.822 2.01333 124.608 1.14666 127.675 1.12L140.835 1.24C141.555 1.24 141.915 1.52 141.915 2.08C141.915 2.24 141.808 2.53333 141.595 2.96C141.382 3.36 141.195 3.8 141.035 4.28C140.688 5.24 139.955 5.72 138.835 5.72C137.742 5.72 135.115 5.64 130.955 5.48C130.848 6.65333 130.635 8.16 130.315 10C129.995 11.8133 129.648 13.8 129.275 15.96C128.368 21.48 127.902 25.9067 127.875 29.24ZM165.824 21.56C166.277 21.56 166.504 22.1733 166.504 23.4C166.504 24.0667 166.224 24.88 165.664 25.84C165.104 26.7733 164.371 27.64 163.464 28.44C162.584 29.2133 161.597 29.8533 160.504 30.36C159.411 30.8667 158.344 31.12 157.304 31.12C155.731 31.12 154.637 30.7333 154.024 29.96C153.437 29.16 153.144 28 153.144 26.48C153.144 24.9333 153.744 22.2933 154.944 18.56C151.264 18.4 148.584 18.32 146.904 18.32H146.344C145.864 21.28 145.624 24.3867 145.624 27.64C145.624 29.08 145.077 30.0667 143.984 30.6C143.477 30.84 142.984 31.0667 142.504 31.28C142.051 31.4933 141.557 31.6 141.024 31.6C139.691 31.6 139.024 30.4 139.024 28C139.024 25.6 139.571 22.52 140.664 18.76C139.491 18.8933 138.451 19.0267 137.544 19.16C136.664 19.2933 135.971 19.36 135.464 19.36C134.957 19.36 134.704 19.2267 134.704 18.96C134.704 18.16 135.357 17.3467 136.664 16.52C137.997 15.6933 139.797 15.0667 142.064 14.64C144.571 8.26667 147.637 4.01333 151.264 1.88C152.597 1.08 154.011 0.679999 155.504 0.679999C158.171 0.706666 160.091 1.42667 161.264 2.84C162.464 4.25333 163.064 6.13333 163.064 8.48C163.091 10.8 162.384 13.8267 160.944 17.56C160.411 19 159.917 20.3067 159.464 21.48C159.011 22.6533 158.784 23.6 158.784 24.32C158.784 25.04 158.837 25.5867 158.944 25.96C159.051 26.3333 159.304 26.52 159.704 26.52C160.424 26.52 162.117 25.1333 164.784 22.36C165.264 21.8267 165.611 21.56 165.824 21.56ZM157.304 9.64C157.304 7.32 156.437 6.16 154.704 6.16C152.944 6.16 151.424 6.90667 150.144 8.4C148.891 9.86667 147.917 11.84 147.224 14.32L156.304 14.44C156.971 12.3067 157.304 10.7067 157.304 9.64Z" fill="#FF0000"/>
</svg>
